<svg width="135" height="29" viewBox="0 0 135 29" fill="none" xmlns="http://www.w3.org/2000/svg">
<path d="M41.1867 7.04395H38.3047V19.9558H50.1589C51.9569 19.9558 53.4199 18.4928 53.4199 16.6948V10.305C53.4199 8.507 51.9569 7.04395 50.1589 7.04395H41.1867ZM49.6389 17.0738H41.1867V9.92598H49.6389C50.1325 9.92598 50.5379 10.3314 50.5379 10.825V16.166C50.5379 16.6595 50.1325 17.065 49.6389 17.065V17.0738Z" fill="white"/>
<path d="M36.2734 19.947V7.03516H33.3914V19.947H36.2734Z" fill="white"/>
<path d="M69.1333 9.92598V7.04395H58.1516H57.2438H55.2695V19.9558H57.2438H58.1516H69.1333V17.0738H58.1516V14.9409H69.1333V12.0589H58.1516V9.92598H69.1333Z" fill="white"/>
<path d="M28.4954 7C28.4954 7.64339 28.4954 9.36203 28.4954 9.9261C28.4954 9.90847 28.4954 9.90847 28.4954 9.89085V16.219C28.4954 16.7125 28.09 17.118 27.5964 17.118H20.9334C20.4398 17.118 20.0344 16.7125 20.0344 16.219V7H17.1523V16.739C17.1523 18.5369 18.6154 20 20.4134 20H28.1252C29.9232 20 31.3862 18.5369 31.3862 16.739V7H28.5042H28.4954Z" fill="white"/>
<path d="M6.91864 12.1029V14.7382H12.242V15.6372V16.1748C12.242 16.6684 11.8366 17.0738 11.343 17.0738H3.78983C3.29627 17.0738 2.89085 16.6684 2.89085 16.1748V10.825C2.89085 10.3314 3.29627 9.92598 3.78983 9.92598H14.3224V7.04395H3.26102C1.46305 7.04395 0 8.507 0 10.305V16.6948C0 18.4928 1.46305 19.9558 3.26102 19.9558H11.8542C13.6522 19.9558 15.1153 18.4928 15.1153 16.6948V12.1029H6.91864Z" fill="white"/>
<path fill-rule="evenodd" clip-rule="evenodd" d="M107.208 7.08369C107.236 7.07926 107.266 7.07715 107.294 7.07715H116.729C116.758 7.07715 116.788 7.07926 116.816 7.08369C117.378 7.17183 117.218 7.76827 116.65 7.76827H107.374C106.805 7.76827 106.646 7.17183 107.208 7.08369ZM93.32 7.29174C93.3732 7.16194 93.4996 7.07715 93.6398 7.07715H98.2443C98.3846 7.07715 98.5109 7.16194 98.5641 7.29174C98.6572 7.51909 98.49 7.76827 98.2443 7.76827H93.6398C93.3941 7.76827 93.2269 7.51909 93.32 7.29174ZM72.332 7.42271C72.332 7.23186 72.4867 7.07715 72.6776 7.07715H84.6077C84.6362 7.07715 84.666 7.07927 84.6943 7.08371C85.2557 7.17192 85.0965 7.76827 84.5282 7.76827H72.6776C72.4867 7.76827 72.332 7.61355 72.332 7.42271ZM72.6776 9.0737C72.4867 9.0737 72.332 9.2284 72.332 9.41922C72.332 9.61005 72.4867 9.76475 72.6776 9.76475H86.9433C87.1836 9.76475 87.3671 9.54571 87.2942 9.31678C87.2462 9.16646 87.1027 9.0737 86.945 9.0737H72.6776ZM92.8221 9.0737C92.6818 9.0737 92.5555 9.15848 92.5024 9.28827C92.4092 9.5156 92.5764 9.76475 92.8221 9.76475H99.0621C99.3077 9.76475 99.4749 9.5156 99.3818 9.28827C99.3286 9.15848 99.2023 9.0737 99.0621 9.0737H92.8221ZM104.957 9.0737C104.799 9.0737 104.655 9.16646 104.607 9.31677C104.534 9.5457 104.718 9.76475 104.958 9.76475H119.066C119.306 9.76475 119.489 9.5457 119.416 9.31677C119.368 9.16646 119.225 9.0737 119.067 9.0737H104.957ZM119.57 11.4157C119.57 11.2249 119.415 11.0702 119.224 11.0702H117.033C116.842 11.0702 116.687 11.2249 116.687 11.4157C116.687 11.6065 116.842 11.7612 117.033 11.7612H119.224C119.415 11.7612 119.57 11.6065 119.57 11.4157ZM119.57 13.4122C119.57 13.2214 119.415 13.0667 119.224 13.0667H117.033C116.842 13.0667 116.687 13.2214 116.687 13.4122C116.687 13.603 116.842 13.7577 117.033 13.7577H119.224C119.415 13.7577 119.57 13.603 119.57 13.4122ZM119.57 15.4087C119.57 15.2178 119.415 15.0632 119.224 15.0632H117.033C116.842 15.0632 116.687 15.2178 116.687 15.4087C116.687 15.5995 116.842 15.7542 117.033 15.7542H119.224C119.415 15.7542 119.57 15.5995 119.57 15.4087ZM119.472 17.4879C119.528 17.2639 119.347 17.0596 119.116 17.0596H116.11C116.002 17.0596 115.896 17.0741 115.788 17.0741H108.235C108.128 17.0741 108.021 17.0596 107.914 17.0596H104.908C104.677 17.0596 104.496 17.2639 104.552 17.4879C104.592 17.6485 104.741 17.7507 104.906 17.7507H119.118C119.283 17.7507 119.432 17.6485 119.472 17.4879ZM117.541 19.7143C117.948 19.5476 117.778 19.0561 117.338 19.0561H106.686C106.246 19.0561 106.076 19.5476 106.483 19.7143C106.537 19.7366 106.597 19.7472 106.655 19.7472H117.368C117.427 19.7472 117.487 19.7366 117.541 19.7143ZM85.4185 19.7143C85.3641 19.7366 85.3048 19.7472 85.246 19.7472H72.6776C72.4867 19.7472 72.332 19.5925 72.332 19.4016C72.332 19.2108 72.4867 19.0561 72.6776 19.0561H85.2158C85.6554 19.0561 85.8252 19.5477 85.4185 19.7143ZM91.6822 19.5325C91.629 19.6623 91.5027 19.7472 91.3624 19.7472H88.7337C88.4881 19.7472 88.3209 19.498 88.414 19.2707C88.4671 19.1409 88.5935 19.0561 88.7337 19.0561H91.3624C91.608 19.0561 91.7752 19.3052 91.6822 19.5325ZM103.47 19.2707C103.563 19.498 103.396 19.7472 103.15 19.7472H100.522C100.381 19.7472 100.255 19.6623 100.202 19.5325C100.109 19.3052 100.276 19.0561 100.522 19.0561H103.15C103.291 19.0561 103.417 19.1409 103.47 19.2707ZM102.333 17.7507C102.578 17.7507 102.746 17.5015 102.652 17.2742C102.599 17.1444 102.473 17.0596 102.333 17.0596H89.5514C89.4112 17.0596 89.2848 17.1444 89.2317 17.2742C89.1386 17.5015 89.3057 17.7507 89.5514 17.7507H102.333ZM86.9953 17.7507C87.1608 17.7507 87.3095 17.6485 87.3498 17.488C87.406 17.2639 87.2249 17.0596 86.994 17.0596H83.766C83.7346 17.0632 83.7028 17.065 83.6707 17.0652C83.6682 17.0652 83.6663 17.0672 83.6663 17.0696C83.6663 17.072 83.6643 17.074 83.6619 17.074H75.2212C75.2173 17.074 75.2141 17.0708 75.2141 17.0668C75.2141 17.0629 75.2108 17.0596 75.2069 17.0596H72.6776C72.4867 17.0596 72.332 17.2143 72.332 17.4052C72.332 17.596 72.4867 17.7507 72.6776 17.7507H86.9953ZM72.332 15.4087C72.332 15.5995 72.4867 15.7542 72.6776 15.7542H74.8685C75.0594 15.7542 75.2141 15.5995 75.2141 15.4087C75.2141 15.2178 75.0594 15.0632 74.8685 15.0632H72.6776C72.4867 15.0632 72.332 15.2178 72.332 15.4087ZM72.332 13.4122C72.332 13.603 72.4867 13.7577 72.6776 13.7577H74.8685C75.0594 13.7577 75.2141 13.603 75.2141 13.4122C75.2141 13.2214 75.0594 13.0667 74.8685 13.0667H72.6776C72.4867 13.0667 72.332 13.2214 72.332 13.4122ZM72.332 11.4157C72.332 11.6065 72.4867 11.7612 72.6776 11.7612H74.8685C75.0594 11.7612 75.2141 11.6065 75.2141 11.4157C75.2141 11.2249 75.0594 11.0702 74.8685 11.0702H72.6776C72.4867 11.0702 72.332 11.2249 72.332 11.4157ZM84.9108 11.0702C84.7199 11.0702 84.5653 11.2249 84.5653 11.4157C84.5653 11.6065 84.7199 11.7612 84.9108 11.7612H87.1018C87.2926 11.7612 87.4473 11.6065 87.4473 11.4157C87.4473 11.2249 87.2926 11.0702 87.1018 11.0702H84.9108ZM92.0044 11.0702C91.8642 11.0702 91.7378 11.155 91.6847 11.2848C91.5916 11.5121 91.7588 11.7612 92.0044 11.7612H94.8262C94.9605 11.7612 95.0826 11.6835 95.1393 11.5618C95.2462 11.3327 95.079 11.0702 94.8262 11.0702H92.0044ZM97.0579 11.0702C96.8051 11.0702 96.6379 11.3327 96.7448 11.5618C96.8016 11.6835 96.9237 11.7612 97.0579 11.7612H99.8797C100.125 11.7612 100.293 11.5121 100.199 11.2848C100.146 11.155 100.02 11.0702 99.8797 11.0702H97.0579ZM104.8 11.0702C104.609 11.0702 104.454 11.2249 104.454 11.4157C104.454 11.6065 104.609 11.7612 104.8 11.7612H106.991C107.182 11.7612 107.336 11.6065 107.336 11.4157C107.336 11.2249 107.182 11.0702 106.991 11.0702H104.8ZM107.336 13.4122C107.336 13.2214 107.182 13.0667 106.991 13.0667H104.8C104.609 13.0667 104.454 13.2214 104.454 13.4122C104.454 13.603 104.609 13.7577 104.8 13.7577H106.991C107.182 13.7577 107.336 13.603 107.336 13.4122ZM107.336 15.4087C107.336 15.2178 107.182 15.0632 106.991 15.0632H104.8C104.609 15.0632 104.454 15.2178 104.454 15.4087C104.454 15.5995 104.609 15.7542 104.8 15.7542H106.991C107.182 15.7542 107.336 15.5995 107.336 15.4087ZM101.515 15.7542C101.761 15.7542 101.928 15.5051 101.835 15.2777C101.782 15.1479 101.655 15.0632 101.515 15.0632H90.3691C90.2288 15.0632 90.1025 15.1479 90.0493 15.2777C89.9562 15.5051 90.1234 15.7542 90.3691 15.7542H101.515ZM87.1018 15.7542C87.2926 15.7542 87.4473 15.5995 87.4473 15.4087C87.4473 15.2178 87.2926 15.0632 87.1018 15.0632H84.9108C84.7199 15.0632 84.5653 15.2178 84.5653 15.4087C84.5653 15.5995 84.7199 15.7542 84.9108 15.7542H87.1018ZM84.5653 13.4122C84.5653 13.603 84.7199 13.7577 84.9108 13.7577H87.1018C87.2926 13.7577 87.4473 13.603 87.4473 13.4122C87.4473 13.2214 87.2926 13.0667 87.1018 13.0667H84.9108C84.7199 13.0667 84.5653 13.2214 84.5653 13.4122ZM91.1868 13.0667C91.0465 13.0667 90.9202 13.1514 90.867 13.2812C90.7739 13.5086 90.9411 13.7577 91.1868 13.7577H93.8946C94.0289 13.7577 94.151 13.68 94.2077 13.5583C94.3146 13.3292 94.1474 13.0667 93.8946 13.0667H91.1868ZM97.9895 13.0667C97.7368 13.0667 97.5695 13.3292 97.6764 13.5583C97.7332 13.68 97.8553 13.7577 97.9895 13.7577H100.697C100.943 13.7577 101.11 13.5086 101.017 13.2812C100.964 13.1514 100.838 13.0667 100.697 13.0667H97.9895Z" fill="white"/>
</svg>
